<?xml version="1.0" encoding="UTF-8" standalone="no"?>
<!-- Created with Inkscape (http://www.inkscape.org/) -->

<svg
   xmlns:dc="http://purl.org/dc/elements/1.1/"
   xmlns:cc="http://creativecommons.org/ns#"
   xmlns:rdf="http://www.w3.org/1999/02/22-rdf-syntax-ns#"
   xmlns:svg="http://www.w3.org/2000/svg"
   xmlns="http://www.w3.org/2000/svg"
   xmlns:sodipodi="http://sodipodi.sourceforge.net/DTD/sodipodi-0.dtd"
   xmlns:inkscape="http://www.inkscape.org/namespaces/inkscape"
   width="210mm"
   height="297mm"
   viewBox="0 0 210 297"
   version="1.1"
   id="svg8"
   inkscape:version="0.92.3 (2405546, 2018-03-11)"
   sodipodi:docname="icon.svg"
   inkscape:export-filename="C:\Users\jom252\RiderProjects\CapWeb\Src\TokenService\wwwroot\icon.png"
   inkscape:export-xdpi="6.8603849"
   inkscape:export-ydpi="6.8603849">
  <defs
     id="defs2" />
  <sodipodi:namedview
     id="base"
     pagecolor="#ffffff"
     bordercolor="#666666"
     borderopacity="1.0"
     inkscape:pageopacity="0.0"
     inkscape:pageshadow="2"
     inkscape:zoom="0.98994949"
     inkscape:cx="229.1367"
     inkscape:cy="591.41899"
     inkscape:document-units="mm"
     inkscape:current-layer="layer1"
     showgrid="false"
     inkscape:window-width="1920"
     inkscape:window-height="1017"
     inkscape:window-x="1272"
     inkscape:window-y="-8"
     inkscape:window-maximized="1" />
  <metadata
     id="metadata5">
    <rdf:RDF>
      <cc:Work
         rdf:about="">
        <dc:format>image/svg+xml</dc:format>
        <dc:type
           rdf:resource="http://purl.org/dc/dcmitype/StillImage" />
        <dc:title></dc:title>
      </cc:Work>
    </rdf:RDF>
  </metadata>
  <g
     inkscape:label="Stethescope"
     inkscape:groupmode="layer"
     id="layer1">
    <g
       id="g4549"
       transform="matrix(0.11089217,0,0,0.12603784,45.047359,91.259778)"
       style="fill:#e72929;fill-opacity:1">
      <g
         id="g4547"
         transform="matrix(0.1,0,0,-0.1,0,511)"
         style="fill:#e72929;fill-opacity:1">
        <path
           id="path4543"
           d="m 6101.2,4960.7 c -55.8,-26.9 -117.3,-73.1 -138.5,-101.9 -34.6,-50 -50,-55.8 -198.1,-65.4 -567.4,-44.2 -930.9,-319.3 -984.7,-744.3 -30.8,-248.1 94.2,-852 301.9,-1457.8 148.1,-436.6 300,-790.5 534.7,-1248.2 178.9,-350 186.6,-371.2 152,-394.3 -34.6,-23.1 -30.8,-34.6 80.8,-207.7 327,-505.8 646.2,-832.8 969.3,-992.4 l 146.2,-73.1 -7.7,-1432.8 c -5.8,-1269.4 -9.6,-1446.3 -38.5,-1540.5 -159.6,-532.8 -625.1,-890.5 -1157.8,-892.4 -215.4,0 -340.4,28.8 -546.2,126.9 -325,153.9 -578.9,488.5 -646.2,848.2 -19.2,105.8 -28.8,284.6 -28.8,586.6 0,350.1 -7.7,471.2 -36.5,609.7 -148.1,713.5 -721.2,1275.1 -1444.4,1413.6 -155.8,30.8 -527,25 -682.8,-7.7 -432.7,-92.3 -788.5,-311.6 -1053.9,-646.2 -63.5,-78.9 -125,-150 -136.6,-155.8 -11.5,-7.7 -67.3,-17.3 -125,-23.1 -57.7,-7.7 -165.4,-42.3 -240.4,-76.9 -344.3,-165.4 -550.1,-488.5 -550.1,-867.4 0,-278.9 88.5,-488.5 286.6,-684.7 148.1,-146.2 288.5,-221.2 500,-263.5 392.3,-80.8 825.1,127 1015.5,486.6 201.9,380.8 138.5,828.9 -159.6,1132.8 l -101.9,103.8 119.2,111.6 c 582.8,542.4 1557.8,350 1894.4,-375 94.2,-207.7 103.9,-271.2 119.2,-859.7 15.4,-628.9 32.7,-732.8 173.1,-1025.1 98.1,-207.7 171.2,-309.6 334.6,-482.8 240.4,-248.1 519.3,-413.5 857.8,-505.8 234.6,-61.5 648.1,-61.5 884.7,1.9 638.6,171.1 1130.9,659.6 1309.8,1300.1 44.2,151.9 44.2,167.3 50,1638.6 l 7.7,1484.7 107.7,48.1 c 315.4,146.2 686.6,525.1 1005.9,1027 96.2,150 100,161.6 69.2,194.3 -30.8,34.6 -28.8,46.2 65.4,213.5 325,575.1 700.1,1536.7 834.7,2134.8 73.1,334.6 92.3,484.7 84.6,690.5 -5.8,163.5 -13.5,200 -69.2,313.5 -76.9,157.7 -194.3,265.4 -380.8,355.8 -144.3,69.2 -438.5,140.4 -582.8,140.4 -73.1,0 -96.2,11.5 -175,84.6 -146.2,138.5 -307.7,161.6 -482.7,75 -150,-76.9 -215.4,-180.8 -223.1,-348.1 -7.7,-167.3 44.2,-275 173.1,-363.5 177,-119.2 375,-101.9 528.9,46.2 75,69.2 100,82.7 165.4,82.7 126.9,0 332.7,-51.9 440.4,-109.6 146.2,-78.8 186.6,-150 186.6,-330.8 0,-461.6 -298.1,-1415.5 -692.4,-2223.3 -221.2,-452 -259.7,-513.5 -315.4,-498.1 -38.5,9.6 -55.8,-7.7 -126.9,-121.2 -319.3,-509.7 -686.6,-852 -913.6,-852 -123.1,0 -290.4,94.2 -452,253.9 -146.2,142.3 -363.5,423.1 -480.8,617.4 -59.6,98.1 -71.2,109.6 -117.3,100 -48.1,-11.5 -55.8,1.9 -232.7,350 -223.1,436.6 -369.3,777 -507.7,1188.6 -184.6,553.9 -296.2,1080.9 -267.4,1277 26.9,180.8 242.3,311.6 569.3,340.4 l 132.7,13.5 94.2,-88.5 c 184.6,-173.1 405.8,-171.2 580.8,3.8 209.6,207.7 159.6,534.7 -103.8,665.4 -128.9,63.5 -244.3,63.5 -375.1,-1.9 z M 1527.7,-1776.5 c 242.3,-119.2 377,-334.6 377,-607.7 0,-190.4 -51.9,-325.1 -175,-461.6 -286.6,-311.6 -800.1,-288.5 -1048.2,46.2 -75,101.9 -142.3,296.2 -142.3,413.5 0,280.8 211.6,569.3 482.7,657.8 142.3,46.1 355.8,24.9 505.8,-48.2 z"
           inkscape:connector-curvature="0"
           style="fill:#e72929;fill-opacity:1" />
        <path
           id="path4545"
           d="M 1075.8,-1903.4 C 962.3,-1940 823.8,-2063 770,-2174.6 c -53.8,-107.7 -57.7,-290.4 -11.5,-402 40.4,-94.2 150,-211.6 244.3,-259.6 394.3,-203.9 844.3,194.2 700.1,617.4 -84.8,248.1 -379.1,394.2 -627.1,315.4 z"
           inkscape:connector-curvature="0"
           style="fill:#e72929;fill-opacity:1" />
      </g>
    </g>
  </g>
  <g
     inkscape:groupmode="layer"
     id="layer2"
     inkscape:label="Globe"
     style="display:inline">
    <ellipse
       style="opacity:1;fill:#002727;fill-opacity:0;fill-rule:nonzero;stroke:#000000;stroke-width:3.47186852;stroke-linecap:round;stroke-linejoin:round;stroke-miterlimit:4;stroke-dasharray:none;stroke-dashoffset:0;stroke-opacity:1"
       id="path4562"
       cx="111.85229"
       cy="157.21803"
       rx="86.681801"
       ry="90.824471" />
    <ellipse
       style="opacity:1;fill:#002727;fill-opacity:0;fill-rule:nonzero;stroke:#000000;stroke-width:0.80000001;stroke-linecap:round;stroke-linejoin:round;stroke-miterlimit:4;stroke-dasharray:none;stroke-dashoffset:0;stroke-opacity:1"
       id="path4564"
       cx="111.71867"
       cy="158.76163"
       rx="87.329742"
       ry="32.940399" />
    <ellipse
       style="opacity:1;fill:#002727;fill-opacity:0;fill-rule:nonzero;stroke:#000000;stroke-width:0.80000001;stroke-linecap:round;stroke-linejoin:round;stroke-miterlimit:4;stroke-dasharray:none;stroke-dashoffset:0;stroke-opacity:1"
       id="path4564-7"
       cx="112.57956"
       cy="157.19626"
       rx="86.772003"
       ry="70.334923" />
    <ellipse
       style="opacity:1;fill:#002727;fill-opacity:0;fill-rule:nonzero;stroke:#000000;stroke-width:0.80655086;stroke-linecap:round;stroke-linejoin:round;stroke-miterlimit:4;stroke-dasharray:none;stroke-dashoffset:0;stroke-opacity:1"
       id="path4564-8"
       cx="157.43086"
       cy="-113.35443"
       rx="90.115074"
       ry="32.93145"
       transform="rotate(90)" />
    <ellipse
       style="opacity:1;fill:#002727;fill-opacity:0;fill-rule:nonzero;stroke:#000000;stroke-width:0.81198519;stroke-linecap:round;stroke-linejoin:round;stroke-miterlimit:4;stroke-dasharray:none;stroke-dashoffset:0;stroke-opacity:1"
       id="path4564-7-9"
       cx="156.51003"
       cy="-114.21519"
       rx="90.748901"
       ry="70.316818"
       transform="rotate(90)" />
  </g>
</svg>
